<?xml version="1.0" encoding="utf-8"?>
<!-- Generator: Adobe Illustrator 23.0.3, SVG Export Plug-In . SVG Version: 6.00 Build 0)  -->
<svg version="1.1" id="Layer_1" xmlns="http://www.w3.org/2000/svg" xmlns:xlink="http://www.w3.org/1999/xlink" x="0px" y="0px"
	 viewBox="0 0 32 32" style="enable-background:new 0 0 32 32;" xml:space="preserve">
<style type="text/css">
	.st0{fill:#F1F1F1;}
</style>
<g>
	<g>
		<path class="st0" d="M16,0C7.18,0,0,7.18,0,16c0,8.82,7.18,16,16,16c8.82,0,16-7.18,16-16C32,7.18,24.82,0,16,0z M19.98,16.56
			h-2.6c0,4.16,0,9.28,0,9.28h-3.86c0,0,0-5.07,0-9.28h-1.83v-3.28h1.83v-2.12c0-1.52,0.72-3.89,3.89-3.89l2.86,0.01v3.18
			c0,0-1.74,0-2.07,0c-0.34,0-0.82,0.17-0.82,0.89v1.93h2.94L19.98,16.56z"/>
	</g>
</g>
</svg>
