<?xml version="1.0" encoding="utf-8"?>
<!-- Generator: Adobe Illustrator 23.0.3, SVG Export Plug-In . SVG Version: 6.00 Build 0)  -->
<svg version="1.1" id="Layer_1" xmlns="http://www.w3.org/2000/svg" xmlns:xlink="http://www.w3.org/1999/xlink" x="0px" y="0px"
	 viewBox="0 0 237 83.1" style="enable-background:new 0 0 237 83.1;" xml:space="preserve">
<style type="text/css">
	.st0{fill:#FFFFFF;}
</style>
<title>Asset 149</title>
<path class="st0" d="M2.6,78.7L2.6,78.7c-0.1-2.4,1.8-4.4,4.2-4.5c0.1,0,0.1,0,0.2,0c1.3,0,2.5,0.4,3.4,1.3l-1,1.1
	c-0.6-0.7-1.5-1-2.4-1.1c-1.6,0-2.9,1.3-2.9,2.9c0,0,0,0.1,0,0.1l0,0c-0.1,1.6,1.1,3,2.7,3.1c0,0,0.1,0,0.1,0c0.9,0,1.8-0.4,2.5-1.1
	l1,1c-0.9,1-2.2,1.6-3.5,1.5c-2.4,0-4.4-1.9-4.4-4.3C2.5,78.8,2.5,78.7,2.6,78.7z"/>
<path class="st0" d="M22.1,74.3h1.4l3.8,8.7h-1.6l-0.9-2.1h-4.1L19.9,83h-1.6L22.1,74.3z M24.3,79.5l-1.5-3.5l-1.5,3.5H24.3z"/>
<path class="st0" d="M35.8,74.3h3.4c2,0,3.3,1.2,3.3,2.9l0,0c0,1.9-1.5,3-3.5,3h-1.7V83h-1.5V74.3z M39.1,78.8
	c1.2,0,1.9-0.6,1.9-1.5l0,0c0-1-0.7-1.6-1.9-1.6h-1.8v3.1L39.1,78.8z"/>
<path class="st0" d="M51.2,74.3h1.5V83h-1.5V74.3z"/>
<path class="st0" d="M64.2,75.7h-2.7v-1.4h7v1.4h-2.7V83h-1.5V75.7z"/>
<path class="st0" d="M80.1,74.3h1.4l3.8,8.7h-1.6l-0.9-2.1h-4.1L77.9,83h-1.6L80.1,74.3z M82.3,79.5l-1.5-3.5l-1.5,3.5H82.3z"/>
<path class="st0" d="M93.9,74.3h1.5v7.3h4.5V83h-6.1V74.3z"/>
<path class="st0" d="M122.3,74.3h1.4l3.8,8.7h-1.6l-0.9-2.1h-4l-0.9,2.1h-1.6L122.3,74.3z M124.5,79.5l-1.5-3.5l-1.5,3.5H124.5z"/>
<path class="st0" d="M136,74.3h3.2c2.4-0.2,4.4,1.6,4.6,4c0,0.1,0,0.2,0,0.3l0,0c0,2.4-1.9,4.3-4.3,4.4c-0.1,0-0.2,0-0.3,0H136V74.3
	z M139.2,81.6c1.5,0.1,2.9-1.1,3-2.6c0-0.1,0-0.2,0-0.3l0,0c0.1-1.6-1.2-2.9-2.7-2.9c-0.1,0-0.2,0-0.3,0h-1.7v5.9L139.2,81.6z"/>
<path class="st0" d="M152,74.3h1.7l2.6,6.6l2.6-6.6h1.6l-3.6,8.7h-1.3L152,74.3z"/>
<path class="st0" d="M169.1,74.3h1.5V83h-1.5V74.3z"/>
<path class="st0" d="M179.4,81.7l0.9-1.1c0.7,0.7,1.7,1.1,2.7,1.1c0.9,0,1.5-0.4,1.5-1.1l0,0c0-0.6-0.3-0.9-2-1.3
	c-1.8-0.4-2.9-1-2.9-2.6l0,0c0-1.5,1.2-2.5,3-2.5c1.1,0,2.2,0.4,3.1,1.1l-0.8,1.1c-0.7-0.5-1.5-0.9-2.4-0.9c-0.9,0-1.4,0.5-1.4,1
	l0,0c0,0.7,0.4,1,2.1,1.4c1.8,0.4,2.8,1.1,2.8,2.5l0,0c0,1.6-1.3,2.6-3.1,2.6C181.7,83,180.4,82.6,179.4,81.7z"/>
<path class="st0" d="M194.5,78.7L194.5,78.7c0.2-2.5,2.4-4.3,4.9-4.1c2.2,0.2,3.9,1.9,4.1,4.1l0,0c0,2.4-2,4.4-4.4,4.5
	c0,0,0,0-0.1,0c-2.4,0.1-4.4-1.8-4.5-4.2C194.5,78.8,194.5,78.7,194.5,78.7z M201.9,78.7L201.9,78.7c0.1-1.7-1.3-3-2.9-3.1
	c0,0,0,0,0,0c-1.6,0-2.9,1.3-2.9,2.9c0,0,0,0.1,0,0.1l0,0c-0.1,1.7,1.3,3,2.9,3.1c0,0,0,0,0,0c1.6,0,2.9-1.3,2.9-2.9
	C201.9,78.7,201.9,78.7,201.9,78.7z"/>
<path class="st0" d="M212.4,74.3h3.9c0.9,0,1.8,0.3,2.5,0.9c0.5,0.5,0.7,1.2,0.7,1.9l0,0c0,1.3-0.8,2.4-2.1,2.6l2.3,3.3h-1.8l-2.1-3
	h-1.9v3h-1.5L212.4,74.3z M216.1,78.6c1.1,0,1.8-0.6,1.8-1.4l0,0c0-0.9-0.7-1.4-1.8-1.4h-2.2v2.9L216.1,78.6z"/>
<path class="st0" d="M227.7,81.7l0.9-1.1c0.7,0.7,1.7,1.1,2.7,1.1c0.9,0,1.5-0.4,1.5-1.1l0,0c0-0.6-0.4-0.9-1.9-1.3
	c-1.8-0.4-2.9-1-2.9-2.6l0,0c0-1.5,1.2-2.5,2.9-2.5c1.1,0,2.3,0.4,3.1,1.1l-0.8,1.2c-0.7-0.5-1.5-0.9-2.3-0.9c-0.9,0-1.4,0.5-1.4,1
	l0,0c0,0.7,0.4,1,2,1.4c1.8,0.4,2.8,1.1,2.8,2.5l0,0c0,1.6-1.3,2.6-3.1,2.6C230,83.1,228.7,82.6,227.7,81.7z"/>
<path class="st0" d="M101,12.8c-1.7-5.1-3-6.8-7.7-7.1V4.7h23.8v0.9c-5.8,0.3-7.1,1.8-5.6,6l10.1,30.9h0.4l8.4-27.2
	c2-6.2,0.6-8.7-5.3-9.8V4.7h16.8v0.9c-5.5,1-7.6,3.5-10.3,11.8L119.6,56h-3.7l-12.1-35.4L91.3,56h-3.8L73,12.8
	c-1.7-4.9-3-6.4-8.2-7.2V4.7h24.1v0.9c-5.6,0.3-6.4,2-5.2,6l9.9,31.1H94l9-24.5L101,12.8z"/>
<path class="st0" d="M138.1,38.8c0-10.9,7.7-17.7,17.1-17.7c10.1,0,15.4,6.7,14.9,16h-21.8v1.4c0,8.8,3.8,14,10.9,14
	c4.4,0,7.2-2.2,10-5.9l0.8,0.5c-3.2,5.1-7.6,8.5-14.7,8.5C145.1,55.7,138.1,49.4,138.1,38.8z M148.4,35.8h11.9
	c0.9-8.2-0.9-13.4-5.5-13.4C150.7,22.5,148.7,27.4,148.4,35.8L148.4,35.8z"/>
<path class="st0" d="M177.5,43.2h1c4.7,7.7,8.2,11,13.4,11c3.8,0,5.8-2.2,5.8-5.2c0-3.3-2-4.8-9.4-7s-10.8-4.5-10.8-9.9
	c0-6.6,5.1-11,13.1-11c3.2-0.1,6.3,0.8,9,2.5l2-2.5h0.9v11.1h-1c-4.2-6.6-6.8-9.8-11.4-9.8c-2.8-0.2-5.2,1.9-5.4,4.7
	c0,0.2,0,0.5,0,0.7c0,3,3.1,4.4,8,5.7c7.7,1.9,11.8,4.5,11.8,10.5c0,6.5-5.2,11.5-13.4,11.5c-2.7,0-8.5-1.4-10.6-2.7l-2.2,2.7h-0.9
	L177.5,43.2z"/>
<path class="st0" d="M216.6,45.6V24.5h-6.4v-1.2l6.6-1.4v-9.2l9.5-2.9v12.2h10.2v2.3h-10.2v21.9c0,4.2,1.1,6,4.2,6
	c2.3,0,4.1-1.5,5.7-4.7L237,48c-2.1,5.2-5.1,7.7-10.4,7.7C220.7,55.7,216.6,52.9,216.6,45.6z"/>
<path class="st0" d="M56.1,18C55,20.5,54,23,53,25.5c-3.7,9.2-9.2,20.5-5.7,30.6h7c1,0,1.9-0.9,1.9-1.9c0,0,0,0,0,0L56.1,18z"/>
<path class="st0" d="M54.8,13.8c0.2-0.7-0.2-1.4-0.9-1.7c-0.1,0-0.2-0.1-0.4-0.1H39.2c-2.8,0-3.5,0.8-5,3.3c-0.6,0.9-1.4,2.5-2,3.4
	c-0.2,0.4-0.7,0.6-1.2,0.5l0,0c-0.5-0.2-0.8-0.7-0.6-1.3l1.8-12.1c0.2-0.7,0.8-1.2,1.5-1.2h22.4V1.9c0-1-0.8-1.9-1.9-1.9H1.9
	C0.8,0,0,0.9,0,1.9c0,0,0,0,0,0V47c0,5,5.5,9.1,10.4,9.1c5.9,0,11.8-5.7,11.8-12c0.2-4.6-2.9-8.7-7.3-9.9c-1.8-0.5-3.7-0.6-5.5-0.3
	l-4.1,0.5c-0.9,0.1-1.7-0.6-1.8-1.5c0-0.2,0-0.3,0-0.5l3.1-21.9c0.1-0.8,0.8-1.4,1.6-1.4h14.7c1.9,0,3.4-2.1,4.3-3.4
	c0.2-0.3,0.5-0.4,0.8-0.3l0,0c0.4,0.1,0.6,0.5,0.5,0.9l-1.5,9.2c-0.2,0.7-0.8,1.2-1.5,1.2H10.1c-1.1,0-2,0.8-2.1,1.9l-0.9,7.2
	C7,26.5,7.4,27,8,27.1c0.1,0,0.2,0,0.2,0c2.2-0.2,4.4-0.4,6.6-0.4c8,0,14.8,4.4,14.8,14.8c0,4.9-3.5,11.6-9,14.6h16.6
	c0-12.8,3.2-16,9.2-25.9C49.3,25.6,53.1,19.4,54.8,13.8z"/>
</svg>
